<?xml version="1.0" standalone="no"?>
<!DOCTYPE svg PUBLIC "-//W3C//DTD SVG 20010904//EN"
 "http://www.w3.org/TR/2001/REC-SVG-20010904/DTD/svg10.dtd">
<svg version="1.0" xmlns="http://www.w3.org/2000/svg"
 width="358.000000pt" height="522.000000pt" viewBox="0 0 358.000000 522.000000"
 preserveAspectRatio="xMidYMid meet">

<g transform="translate(0.000000,522.000000) scale(0.100000,-0.100000)"
fill="#000000" stroke="none">
<path d="M1200 5205 c0 -9 6 -12 15 -9 8 4 15 10 15 15 0 5 -7 9 -15 9 -8 0
-15 -7 -15 -15z"/>
<path d="M1822 4842 l-93 -297 -107 -177 c-82 -137 -109 -174 -119 -166 -10 8
-18 4 -34 -16 -11 -14 -29 -26 -40 -26 -10 0 -19 -4 -19 -10 0 -5 -9 -10 -20
-10 -11 0 -23 -7 -26 -15 -4 -8 -15 -15 -25 -15 -10 0 -19 -4 -19 -10 0 -5
-11 -10 -25 -10 -14 0 -25 -4 -25 -10 0 -16 -48 -11 -70 7 -32 28 -25 72 19
121 22 23 49 42 60 42 12 0 21 5 21 10 0 6 20 10 44 10 30 0 46 5 50 15 3 8
15 15 26 15 11 0 20 5 20 10 0 6 9 10 20 10 11 0 20 5 20 10 0 6 -9 10 -20 10
-11 0 -20 -4 -20 -10 0 -5 -11 -10 -25 -10 -14 0 -25 -4 -25 -10 0 -5 -20 -10
-44 -10 -30 0 -46 -5 -50 -15 -3 -8 -15 -15 -26 -15 -11 0 -20 -5 -20 -11 0
-6 -10 -9 -22 -7 l-23 3 -2 269 c-1 147 -4 270 -6 273 -9 8 -17 -129 -23 -407
-4 -157 -9 -305 -13 -330 -6 -43 -8 -45 -46 -51 -22 -4 -72 -12 -111 -18 l-71
-12 -37 -77 c-35 -70 -47 -84 -132 -151 -52 -41 -94 -77 -94 -81 0 -9 -78
-426 -85 -458 -4 -16 -2 -23 6 -20 7 2 13 17 15 33 2 16 8 31 14 33 5 2 10 24
10 48 0 24 5 44 10 44 6 0 10 20 10 45 0 25 5 45 10 45 6 0 10 15 10 34 0 21
6 36 15 40 8 3 15 15 15 26 0 11 5 20 10 20 6 0 10 28 10 63 0 81 15 97 88 97
29 0 52 5 52 10 0 6 9 10 20 10 16 0 20 7 21 33 1 17 1 38 0 45 -1 7 5 15 14
18 8 3 15 15 15 25 0 10 5 19 10 19 6 0 10 10 10 21 0 37 28 48 122 49 58 0
88 -4 90 -12 8 -22 68 43 68 74 0 21 5 28 19 28 10 0 21 7 25 15 3 8 15 15 26
15 11 0 20 5 20 10 0 6 15 10 33 10 23 0 38 7 51 25 12 16 29 25 45 25 15 0
32 5 39 12 9 9 12 6 12 -14 0 -14 7 -28 15 -32 9 -3 15 -18 15 -36 0 -16 2
-30 5 -30 12 0 65 61 65 75 0 7 5 17 10 20 6 3 10 14 10 25 0 10 7 21 16 24 9
3 14 13 10 21 -3 8 -1 17 4 20 15 9 40 67 40 92 0 12 5 23 10 23 6 0 10 15 10
34 0 21 6 36 15 40 9 3 15 18 15 35 0 16 5 33 10 36 6 3 10 24 10 45 0 21 5
42 10 45 6 3 10 23 10 43 0 20 7 45 14 55 7 9 12 31 10 47 -3 21 1 33 11 36 9
4 15 19 15 40 0 19 5 34 10 34 6 0 10 13 10 29 0 17 5 33 10 36 6 3 10 20 10
36 0 17 6 32 15 35 8 4 15 15 15 25 0 10 5 19 10 19 6 0 10 11 10 25 0 14 4
25 9 25 5 0 11 10 13 23 3 19 9 22 51 23 39 2 53 -3 73 -23 31 -31 31 -19 -2
24 -24 31 -28 33 -87 33 l-62 0 -93 -298z"/>
<path d="M2100 5032 c0 -4 9 -15 20 -25 22 -19 25 -15 10 14 -11 19 -30 26
-30 11z"/>
<path d="M2132 4760 c0 -14 2 -19 5 -12 2 6 2 18 0 25 -3 6 -5 1 -5 -13z"/>
<path d="M2104 4675 c-3 -8 -4 -20 -2 -27 3 -7 7 -1 10 15 6 29 1 36 -8 12z"/>
<path d="M2082 4600 c0 -14 2 -19 5 -12 2 6 2 18 0 25 -3 6 -5 1 -5 -13z"/>
<path d="M2060 4530 c0 -11 2 -20 4 -20 2 0 6 9 9 20 3 11 1 20 -4 20 -5 0 -9
-9 -9 -20z"/>
<path d="M2041 4464 c0 -11 3 -14 6 -6 3 7 2 16 -1 19 -3 4 -6 -2 -5 -13z"/>
<path d="M2017 4433 c-4 -3 -7 -19 -7 -34 0 -15 -4 -31 -10 -34 -5 -3 -10 -15
-10 -26 0 -10 -4 -19 -10 -19 -5 0 -10 -14 -10 -30 0 -18 -6 -33 -15 -36 -9
-4 -15 -19 -15 -40 0 -19 -4 -34 -10 -34 -5 0 -10 -16 -10 -35 0 -19 -4 -35
-10 -35 -5 0 -10 -20 -10 -44 0 -30 -5 -46 -15 -50 -10 -3 -15 -19 -15 -46 0
-22 -4 -40 -10 -40 -5 0 -10 -20 -10 -45 0 -25 -4 -45 -10 -45 -5 0 -10 -19
-9 -42 l1 -43 18 55 c31 91 190 614 190 624 0 8 -15 8 -23 -1z"/>
<path d="M1260 3860 c-8 -11 -22 -20 -31 -20 -18 0 -29 -19 -29 -49 0 -10 -36
-54 -80 -99 -44 -44 -80 -88 -80 -96 0 -9 -4 -16 -10 -16 -5 0 -10 -12 -10
-27 -1 -27 -1 -27 -15 -9 -15 19 -16 19 -45 -9 -25 -24 -30 -36 -30 -77 0 -38
6 -54 27 -78 33 -38 63 -40 63 -5 0 17 5 25 18 25 10 0 29 10 42 22 16 15 25
18 28 10 2 -7 8 -12 13 -12 15 0 89 -79 89 -95 0 -8 5 -17 10 -20 15 -9 12
-62 -5 -68 -11 -5 -14 -32 -14 -136 l-1 -130 -35 -38 c-19 -20 -35 -41 -35
-46 0 -4 -9 -17 -20 -29 -11 -12 -20 -29 -20 -37 0 -20 -37 -45 -45 -31 -3 6
-19 10 -35 10 -16 0 -32 5 -35 10 -3 6 -12 10 -20 10 -26 0 -95 82 -95 112 0
15 4 28 9 28 6 0 11 15 13 33 2 24 8 33 26 35 20 3 22 9 22 67 0 35 5 67 10
70 19 12 11 45 -10 45 -11 0 -23 7 -26 15 -4 8 -15 15 -25 15 -12 0 -19 7 -19
20 0 15 -7 20 -25 20 -22 0 -25 4 -25 35 0 19 -4 35 -9 35 -5 0 -16 16 -25 35
-19 38 -36 46 -36 16 0 -11 11 -28 25 -39 16 -12 25 -30 25 -47 0 -19 15 -42
55 -80 52 -51 55 -57 55 -104 0 -43 -4 -53 -35 -84 -19 -19 -35 -41 -35 -49 0
-7 -9 -20 -20 -28 -11 -8 -20 -18 -20 -22 0 -4 9 -8 20 -8 11 0 20 -3 21 -7 0
-5 1 -29 2 -54 2 -47 22 -79 50 -79 8 0 17 -7 21 -15 8 -21 42 -19 51 3 6 16
7 16 16 0 6 -11 22 -18 39 -18 17 0 30 -4 30 -10 0 -5 11 -10 25 -10 18 0 25
5 25 19 0 11 11 28 25 39 14 11 25 27 25 35 0 9 5 19 10 22 5 3 10 13 10 21 0
15 23 44 34 44 3 0 6 -9 6 -20 0 -16 7 -20 34 -20 21 0 36 -6 40 -15 4 -10 17
-14 44 -12 32 2 48 12 100 64 34 34 62 69 62 78 0 9 7 18 15 21 11 5 15 21 15
59 0 30 5 57 10 60 6 3 10 19 10 36 0 16 5 29 10 29 6 0 10 42 10 105 0 63 -4
105 -10 105 -5 0 -10 9 -10 19 0 11 -11 28 -25 39 -19 15 -25 29 -25 61 0 23
-4 41 -9 41 -5 0 -16 16 -25 35 -11 22 -24 35 -36 35 -34 0 -23 38 26 84 l46
44 -30 31 c-16 17 -37 31 -46 31 -9 0 -16 5 -16 10 0 6 -9 10 -19 10 -11 0
-23 5 -26 10 -11 18 -70 11 -85 -10z m131 -50 c6 0 17 -7 25 -15 14 -13 10
-21 -34 -65 -27 -27 -55 -50 -61 -50 -7 0 -54 -43 -106 -95 -52 -52 -101 -95
-109 -95 -8 0 -16 -10 -18 -22 -2 -13 -11 -24 -23 -27 -11 -2 -27 -12 -36 -22
-21 -24 -41 -24 -63 0 -24 26 -17 60 17 85 27 20 29 20 38 3 12 -21 38 -22 45
-2 4 9 11 14 18 13 6 -1 20 4 31 11 17 10 19 21 16 64 -1 29 -7 57 -12 63 -6
8 2 17 25 28 18 9 36 25 39 36 3 13 13 20 29 20 l23 0 -27 -23 c-16 -14 -25
-31 -23 -43 2 -10 4 -30 4 -44 1 -19 4 -21 13 -12 7 7 20 12 30 12 11 0 18 7
18 19 0 10 17 33 37 50 32 27 35 33 21 44 -19 15 -32 64 -18 72 5 3 10 15 10
26 0 18 2 18 40 -6 22 -14 45 -25 51 -25z m-126 -40 c-10 -11 -22 -20 -27 -20
-4 0 -8 9 -8 20 0 15 7 20 27 20 25 0 26 0 8 -20z m123 -130 c18 -16 36 -30
42 -30 5 0 10 -11 10 -25 0 -14 5 -25 10 -25 6 0 10 -16 10 -35 0 -19 5 -35
10 -35 6 0 10 -9 10 -19 0 -11 5 -23 10 -26 6 -3 10 -14 10 -25 0 -10 7 -20
15 -24 11 -4 15 -22 15 -74 0 -50 -4 -73 -15 -82 -9 -7 -15 -29 -15 -51 0 -21
-4 -41 -10 -44 -5 -3 -10 -26 -10 -51 0 -24 -4 -44 -10 -44 -5 0 -10 -7 -10
-15 0 -9 -23 -38 -51 -65 -49 -47 -54 -50 -105 -50 -30 0 -57 0 -61 0 -13 -1
-15 72 -4 83 6 6 11 22 11 35 0 14 7 30 17 37 9 7 14 19 10 29 -9 23 -27 20
-27 -4 0 -11 -4 -20 -10 -20 -6 0 -10 31 -10 73 0 65 3 76 25 97 23 21 23 24
7 36 -14 11 -15 16 -4 33 12 21 17 101 6 101 -11 0 -34 -29 -34 -44 0 -30 -18
-24 -56 19 -22 24 -45 45 -51 45 -7 0 -13 3 -13 8 0 12 39 42 54 42 8 0 16 10
18 22 2 13 11 24 22 26 10 2 46 33 80 67 33 35 64 64 67 64 3 1 20 -12 37 -29z
m-278 5 c0 -3 -9 -15 -20 -27 -21 -23 -28 -7 -7 17 12 14 27 20 27 10z"/>
<path d="M1165 3590 c3 -5 8 -10 11 -10 2 0 4 5 4 10 0 6 -5 10 -11 10 -5 0
-7 -4 -4 -10z"/>
<path d="M2345 3758 c-27 -17 -81 -48 -120 -68 -59 -32 -88 -57 -183 -166 -63
-71 -118 -131 -123 -132 -5 -2 -32 13 -60 33 -28 20 -53 34 -56 31 -3 -3 2 -8
11 -12 9 -3 16 -15 16 -25 0 -12 7 -19 20 -19 16 0 20 -7 20 -35 0 -33 2 -35
34 -35 30 0 46 12 133 99 54 54 115 117 135 140 20 23 42 41 50 41 19 1 48 25
48 41 1 24 26 49 49 49 11 0 21 5 21 10 0 6 7 10 16 10 9 0 27 12 40 28 45 51
24 56 -51 10z"/>
<path d="M2540 3550 c0 -5 5 -10 11 -10 5 0 7 5 4 10 -3 6 -8 10 -11 10 -2 0
-4 -4 -4 -10z"/>
<path d="M2375 3385 c-16 -19 -38 -35 -47 -35 -10 0 -18 -4 -18 -10 0 -5 -6
-10 -14 -10 -24 0 -71 -30 -121 -77 -8 -7 -18 -13 -24 -13 -17 0 -51 -33 -51
-49 0 -7 -31 -45 -70 -84 -65 -65 -81 -87 -62 -87 6 0 434 358 467 391 5 6 2
9 -10 9 -11 0 -33 -16 -50 -35z"/>
<path d="M569 3124 c-4 -24 -31 -83 -65 -139 -50 -85 -64 -119 -111 -288 -47
-167 -56 -217 -73 -382 -10 -104 -17 -191 -14 -194 2 -2 4 3 4 12 0 9 5 17 10
17 6 0 10 20 10 45 0 25 5 45 10 45 6 0 10 25 10 55 0 40 4 57 15 61 11 5 15
23 15 75 0 39 4 69 10 69 6 0 10 13 10 29 0 17 5 33 10 36 6 3 10 35 10 70 0
47 4 64 15 69 10 4 15 19 15 48 0 32 5 47 20 58 11 8 20 24 20 36 0 11 8 36
18 55 l17 34 3 -39 c2 -21 -1 -43 -7 -49 -6 -6 -11 -22 -11 -34 0 -13 -11 -36
-24 -50 -24 -26 -24 -28 -25 -243 -1 -184 1 -219 14 -230 8 -7 15 -21 15 -31
0 -12 7 -19 20 -19 13 0 20 -7 20 -19 0 -13 8 -21 22 -23 13 -2 24 -11 26 -22
2 -10 23 -37 47 -60 23 -23 44 -51 46 -62 3 -11 14 -20 27 -22 12 -2 22 -10
22 -18 0 -9 36 -51 80 -95 44 -43 80 -85 80 -92 0 -19 33 -47 53 -47 9 0 17
-8 17 -17 0 -23 49 -73 72 -73 10 0 18 -7 18 -17 0 -25 50 -73 77 -73 16 0 23
6 23 20 0 11 5 20 10 20 6 0 10 8 10 18 0 10 11 29 25 42 14 13 25 32 25 42 0
10 5 18 10 18 6 0 10 16 10 35 0 19 5 35 10 35 6 0 10 9 10 19 0 10 7 21 15
25 11 4 15 22 15 69 0 35 5 68 11 74 8 8 8 13 0 17 -19 12 -13 46 9 46 21 0
27 15 10 25 -5 3 -10 19 -10 35 0 16 5 32 10 35 6 3 10 50 10 105 0 84 2 99
18 105 16 6 16 7 0 19 -13 10 -15 15 -6 24 9 9 9 15 0 24 -17 17 -15 65 2 71
8 3 16 21 19 39 2 21 4 12 5 -25 2 -41 6 -59 17 -63 8 -4 15 -18 15 -34 0 -16
-7 -30 -15 -34 -16 -6 -21 -61 -6 -70 5 -3 14 1 21 9 7 8 21 15 31 15 22 0 25
15 6 23 -8 3 -14 24 -15 53 -2 42 1 51 32 78 18 18 35 40 37 51 3 12 14 21 27
23 14 2 22 10 22 23 0 10 7 19 15 19 9 0 31 16 49 35 19 19 42 35 50 35 9 0
19 7 22 15 4 8 14 15 24 15 9 0 25 9 35 20 10 11 26 20 35 20 10 0 20 7 24 15
3 8 15 15 26 15 11 0 20 5 20 10 0 6 25 10 55 10 30 0 55 -4 55 -10 0 -5 14
-10 30 -10 18 0 33 -6 36 -15 4 -9 19 -15 40 -15 19 0 34 -4 34 -10 0 -5 9
-10 19 -10 11 0 23 -4 26 -10 3 -5 13 -10 22 -10 8 0 24 -11 35 -25 12 -16 30
-25 47 -25 16 0 37 -10 51 -25 13 -14 28 -25 34 -25 6 0 26 -15 45 -32 33 -31
61 -44 61 -29 0 3 -33 34 -74 68 -87 72 -357 213 -449 233 -32 8 -60 17 -63
21 -2 4 16 24 41 44 25 21 45 42 45 48 0 5 -8 3 -18 -6 -10 -10 -26 -17 -35
-17 -9 0 -17 -4 -17 -10 0 -5 -8 -10 -19 -10 -10 0 -24 -6 -31 -14 -6 -8 -17
-13 -24 -10 -8 3 -16 -2 -19 -10 -4 -10 -18 -16 -37 -16 -16 0 -30 -4 -30 -10
0 -5 -11 -10 -24 -10 -13 0 -27 -7 -30 -16 -3 -8 -10 -13 -15 -10 -5 3 -14 -1
-21 -9 -8 -9 -30 -15 -56 -15 -24 0 -44 -4 -44 -10 0 -5 -9 -10 -20 -10 -11 0
-20 -4 -20 -10 0 -5 -12 -10 -27 -10 -14 0 -35 -7 -45 -17 -17 -15 -18 -15
-18 5 0 11 -5 24 -11 27 -15 10 -38 -25 -39 -57 0 -20 -6 -27 -22 -30 -15 -2
-24 -11 -26 -25 -4 -24 -18 -31 -24 -12 -7 20 -48 -13 -48 -38 0 -13 -4 -23
-10 -23 -5 0 -10 -9 -10 -20 0 -11 -4 -20 -10 -20 -5 0 -10 -8 -10 -19 0 -10
-16 -32 -35 -48 -19 -17 -35 -39 -35 -50 0 -11 -11 -26 -25 -33 -14 -7 -25
-22 -25 -32 0 -10 -11 -30 -25 -44 -14 -14 -23 -30 -20 -35 4 -5 -1 -12 -9
-15 -9 -3 -16 -14 -16 -24 0 -21 -31 -50 -53 -50 -10 0 -17 -8 -17 -19 0 -11
-4 -23 -10 -26 -5 -3 -10 -24 -10 -45 0 -21 -4 -42 -10 -45 -5 -3 -10 -13 -10
-22 0 -8 -11 -24 -25 -35 -16 -13 -25 -29 -25 -49 0 -16 -4 -29 -10 -29 -5 0
-10 9 -10 20 0 13 -7 20 -20 20 -11 0 -21 5 -21 10 -1 6 -2 14 -3 18 0 5 -22
30 -48 56 -27 26 -48 53 -48 60 0 6 -31 42 -70 79 -39 37 -70 74 -70 82 0 7
-4 17 -10 20 -6 4 -10 73 -10 175 0 139 3 169 15 174 8 3 12 12 9 19 -3 8 2
17 10 20 9 4 16 16 16 27 0 11 5 20 10 20 6 0 10 20 10 44 0 24 5 46 10 48 7
2 10 60 8 163 -2 94 -6 143 -9 119z"/>
<path d="M1878 2700 c-16 -16 -28 -35 -28 -42 0 -7 -11 -22 -25 -32 -14 -10
-25 -27 -25 -37 0 -11 -7 -19 -16 -19 -19 0 -74 -53 -74 -72 0 -8 -11 -25 -25
-38 -14 -13 -25 -27 -25 -32 0 -5 -9 -18 -20 -30 -11 -12 -20 -28 -20 -36 0
-7 -16 -28 -35 -46 -19 -19 -35 -41 -35 -50 0 -9 -4 -16 -10 -16 -5 0 -10 -8
-10 -19 0 -10 -7 -24 -15 -31 -9 -7 -15 -29 -15 -52 0 -25 5 -41 15 -44 8 -4
15 -17 15 -29 0 -26 -15 -41 -25 -25 -11 18 -25 10 -25 -15 0 -14 5 -25 10
-25 6 0 10 -9 10 -20 0 -11 7 -23 15 -26 8 -4 15 -15 15 -25 0 -10 5 -19 10
-19 6 0 10 -11 10 -25 0 -14 5 -25 10 -25 6 0 10 -9 10 -19 0 -10 7 -21 15
-25 8 -3 12 -12 9 -21 -4 -8 1 -17 10 -21 9 -3 16 -14 16 -24 0 -11 5 -22 10
-25 6 -3 10 -22 10 -41 0 -19 5 -34 10 -34 6 0 10 -9 10 -20 0 -11 5 -20 10
-20 6 0 10 -11 10 -25 0 -16 6 -25 15 -25 9 0 15 -9 15 -25 0 -14 5 -25 10
-25 6 0 10 -9 10 -20 0 -11 5 -20 10 -20 6 0 10 -15 10 -34 0 -22 6 -36 16
-40 9 -4 14 -13 10 -21 -3 -9 1 -18 9 -21 9 -4 15 -19 15 -40 0 -19 5 -34 10
-34 6 0 10 -13 10 -29 0 -17 4 -32 9 -36 5 -3 12 -19 16 -35 4 -17 11 -30 16
-30 5 0 9 -15 9 -34 0 -21 6 -36 15 -40 9 -3 15 -18 15 -35 0 -16 5 -33 10
-36 6 -3 10 -19 10 -36 0 -16 5 -29 10 -29 6 0 10 -20 10 -45 0 -25 4 -45 10
-45 5 0 12 -16 16 -35 3 -19 10 -38 15 -41 5 -3 9 -14 9 -25 0 -10 5 -19 10
-19 6 0 10 -16 10 -35 0 -19 5 -35 10 -35 6 0 10 -9 10 -19 0 -10 8 -22 17
-25 14 -6 13 -9 -8 -24 -41 -28 -129 -119 -129 -134 -1 -18 -21 -42 -47 -56
-18 -10 -21 -21 -22 -82 0 -39 4 -70 9 -70 6 0 10 -4 10 -10 0 -15 -43 -12
-78 6 -18 8 -42 14 -54 12 -13 -2 -28 3 -33 10 -7 8 -25 12 -45 10 -28 -2 4
-16 165 -71 196 -66 245 -77 245 -57 0 6 -9 10 -19 10 -11 0 -23 4 -26 10 -3
5 -12 10 -19 10 -8 0 -37 22 -65 50 -44 43 -51 55 -51 88 0 24 7 46 20 60 11
12 20 26 20 33 0 6 11 20 25 31 14 11 25 26 25 34 0 20 74 94 94 94 9 0 16 -4
16 -10 0 -5 16 -10 35 -10 27 0 35 4 35 18 0 10 3 21 6 24 9 9 114 -100 114
-118 0 -9 20 -35 45 -58 25 -24 45 -50 45 -59 0 -10 5 -17 10 -17 6 0 10 -7
10 -16 0 -18 -53 -74 -71 -74 -6 0 -27 -16 -46 -35 -19 -19 -40 -35 -47 -35
-7 0 -21 -10 -32 -21 l-19 -22 49 6 c38 6 56 15 82 42 18 19 38 35 45 35 7 0
26 12 41 27 22 21 28 36 28 71 0 39 -5 49 -35 75 -19 16 -35 37 -35 47 0 10
-20 36 -45 58 -25 22 -45 47 -45 54 0 21 -56 68 -80 68 -23 0 -27 15 -5 24 9
3 15 18 15 36 0 16 5 30 10 30 6 0 10 16 10 35 0 19 5 35 10 35 6 0 10 23 10
51 0 31 6 56 15 65 12 12 15 41 15 129 0 65 4 116 10 120 6 3 10 39 10 79 0
53 4 77 15 86 8 7 15 26 15 42 0 16 9 48 20 70 11 23 20 45 20 49 0 3 36 43
80 87 44 44 80 88 80 98 0 14 3 15 12 6 20 -20 38 -14 38 12 0 22 2 22 40 -15
22 -22 40 -48 40 -59 0 -13 7 -20 19 -20 11 0 32 -14 48 -31 15 -17 38 -35 51
-40 14 -5 22 -17 22 -32 0 -14 21 -44 55 -79 30 -31 55 -62 55 -68 0 -7 17
-28 37 -47 31 -30 35 -38 25 -54 -7 -10 -12 -26 -12 -34 0 -8 -4 -15 -10 -15
-5 0 -10 -9 -10 -19 0 -11 -4 -22 -9 -26 -20 -12 -42 -68 -31 -79 16 -16 70
46 71 81 0 15 3 22 6 16 2 -7 14 -13 25 -13 12 0 56 -36 109 -90 49 -49 92
-90 95 -90 9 0 -16 38 -157 242 -127 182 -159 221 -317 380 -172 173 -177 177
-194 158 -10 -10 -18 -26 -18 -34 0 -8 -4 -18 -10 -21 -5 -3 -10 -13 -10 -20
0 -19 -124 -139 -128 -125 -2 6 4 17 13 24 10 7 15 18 12 23 -4 6 0 13 8 17 9
3 15 18 15 35 0 16 5 33 10 36 6 3 10 14 10 25 0 10 7 21 16 24 8 3 13 10 10
14 -3 5 1 18 9 28 8 10 15 32 15 47 0 16 4 26 10 22 6 -4 10 5 10 19 0 14 5
26 10 26 6 0 10 11 10 25 0 14 5 25 10 25 13 0 13 67 0 75 -11 7 38 65 56 65
6 0 22 11 35 25 13 13 32 25 42 25 14 0 17 9 17 45 0 25 -4 45 -10 45 -5 0
-10 7 -10 16 0 20 -149 174 -168 174 -8 0 -33 20 -56 45 -31 33 -50 45 -70 45
-18 0 -35 9 -48 25 -11 14 -26 25 -34 25 -7 0 -26 13 -41 29 -16 15 -38 31
-50 35 -13 4 -23 12 -23 17 0 5 -8 9 -18 9 -10 0 -29 11 -42 25 -12 13 -26 23
-30 20 -3 -2 -18 7 -33 21 -39 36 -112 34 -149 -6z m570 -432 c-2 -15 -11 -24
-25 -26 -13 -2 -23 -8 -23 -13 0 -5 -9 -9 -20 -9 -16 0 -20 7 -20 35 0 35 0
35 46 35 41 0 45 -2 42 -22z m-763 -93 c0 -13 -8 -21 -24 -23 -28 -4 -46 11
-37 33 9 25 61 16 61 -10z m-119 -152 c-11 -11 -19 6 -11 24 8 17 8 17 12 0 3
-10 2 -21 -1 -24z m57 -51 c5 -7 12 -10 17 -7 4 3 47 -33 94 -80 61 -61 92
-85 110 -85 14 0 28 -4 31 -10 3 -5 14 -10 23 -10 10 0 26 -11 36 -25 10 -14
26 -25 35 -25 9 0 23 -9 31 -20 20 -28 65 -26 97 4 15 14 30 23 34 21 4 -3 33
22 65 55 33 33 65 60 72 60 7 0 32 20 55 45 24 25 51 45 60 45 9 0 19 5 22 10
3 6 16 10 28 9 12 0 16 -3 10 -6 -7 -2 -13 -13 -13 -24 0 -11 -7 -22 -15 -25
-8 -4 -15 -16 -15 -28 0 -12 -9 -28 -20 -36 -11 -8 -20 -23 -20 -33 0 -9 -7
-20 -15 -23 -8 -4 -15 -18 -15 -34 0 -15 -7 -30 -15 -34 -8 -3 -12 -12 -9 -21
4 -8 -1 -17 -10 -21 -9 -3 -16 -14 -16 -24 0 -11 -4 -22 -10 -25 -5 -3 -10
-19 -10 -36 0 -16 -4 -29 -10 -29 -5 0 -10 -20 -10 -44 0 -24 -5 -46 -11 -48
-7 -2 -12 -18 -13 -36 0 -17 -7 -34 -13 -37 -8 -2 -13 -22 -13 -44 0 -22 -4
-43 -10 -46 -5 -3 -10 -25 -10 -47 0 -26 -6 -45 -16 -53 -14 -10 -17 -42 -21
-211 -2 -109 -7 -205 -9 -213 -9 -28 -44 19 -44 60 0 21 -4 41 -10 44 -5 3
-10 26 -10 51 0 24 -4 44 -10 44 -5 0 -10 14 -10 30 0 18 -6 33 -15 36 -8 4
-15 19 -15 34 0 16 -4 32 -10 35 -5 3 -10 19 -10 35 0 16 -4 32 -10 35 -5 3
-10 19 -10 36 0 16 -4 29 -10 29 -5 0 -10 16 -10 35 0 22 -6 38 -14 41 -8 3
-12 12 -9 20 3 7 -2 17 -11 20 -10 4 -16 18 -16 40 0 19 -4 34 -10 34 -5 0
-10 11 -10 25 0 14 -4 25 -9 25 -5 0 -11 8 -15 18 -3 9 -14 31 -25 47 -11 17
-20 38 -20 48 -1 9 -8 17 -16 17 -9 0 -15 9 -15 25 0 14 -4 25 -10 25 -5 0
-10 9 -10 20 0 11 -4 20 -9 20 -5 0 -16 15 -25 33 -19 37 -40 67 -50 67 -10 0
-7 -48 4 -55 6 -3 10 -14 10 -23 0 -10 9 -24 20 -32 11 -8 20 -22 20 -31 0 -9
11 -25 25 -35 14 -10 25 -26 25 -35 0 -9 7 -22 15 -29 9 -8 13 -21 9 -32 -3
-11 0 -27 8 -36 21 -28 38 -61 38 -77 0 -8 5 -15 10 -15 6 0 10 -9 10 -19 0
-10 7 -21 15 -25 9 -3 15 -18 15 -35 0 -16 5 -33 10 -36 6 -3 10 -19 10 -36 0
-16 5 -29 10 -29 6 0 10 -14 10 -31 0 -17 6 -37 14 -45 8 -8 13 -23 11 -35 -2
-11 2 -22 10 -26 9 -3 15 -19 15 -39 0 -19 5 -34 10 -34 6 0 10 -16 10 -35 0
-19 5 -35 10 -35 6 0 10 -17 10 -39 0 -22 6 -44 15 -51 9 -7 15 -29 15 -51 0
-21 5 -41 10 -44 6 -3 10 -19 10 -34 0 -15 3 -30 6 -33 11 -12 44 5 44 23 0
11 5 19 10 19 6 0 10 60 10 160 0 134 3 162 15 166 11 5 15 21 15 59 0 30 5
57 10 60 6 3 10 24 10 46 0 21 5 39 10 39 6 0 10 20 10 44 0 25 5 48 10 51 6
3 10 17 10 30 0 13 5 27 10 30 6 4 10 -10 10 -34 0 -22 -4 -43 -10 -46 -5 -3
-10 -39 -10 -80 0 -41 -4 -77 -10 -80 -6 -4 -10 -57 -10 -126 0 -94 -3 -124
-15 -135 -9 -9 -15 -34 -15 -59 0 -24 -4 -47 -10 -50 -5 -3 -10 -26 -10 -51 0
-24 -4 -44 -10 -44 -5 0 -10 -9 -10 -20 0 -11 -4 -20 -10 -20 -5 0 -10 -13
-10 -29 0 -49 -9 -62 -31 -48 -10 6 -19 19 -19 29 0 9 -4 20 -10 23 -5 3 -10
15 -10 26 0 10 -4 19 -10 19 -5 0 -10 16 -10 35 0 19 -4 35 -9 35 -13 0 -41
58 -41 86 0 13 -4 26 -10 29 -5 3 -10 24 -10 45 0 21 -4 42 -10 45 -5 3 -10
17 -10 30 0 13 -7 30 -15 39 -8 8 -15 26 -15 40 0 14 -4 28 -10 31 -5 3 -10
19 -10 36 0 16 -4 29 -10 29 -5 0 -10 15 -10 34 0 21 -6 36 -15 40 -9 3 -15
18 -15 35 0 16 -4 33 -10 36 -5 3 -10 19 -10 36 0 16 -4 29 -10 29 -5 0 -10 8
-10 19 0 10 -7 24 -15 31 -8 7 -15 25 -15 41 0 16 -4 29 -10 29 -5 0 -10 9
-10 20 0 11 -4 20 -10 20 -5 0 -10 8 -10 19 0 10 -7 24 -15 31 -8 7 -15 21
-15 31 0 11 -4 19 -10 19 -5 0 -10 9 -10 20 0 11 -4 20 -10 20 -5 0 -10 16
-10 35 0 20 -5 35 -11 35 -16 0 -38 31 -39 53 0 12 8 17 25 17 27 0 34 15 10
24 -8 3 -15 15 -15 26 0 11 -4 20 -10 20 -5 0 -10 8 -10 18 0 10 -9 28 -20 40
-11 12 -20 29 -20 38 0 14 2 15 18 3 9 -8 21 -20 25 -27z m-3 -112 c0 -5 -4
-10 -10 -10 -5 0 -10 5 -10 10 0 6 5 10 10 10 6 0 10 -4 10 -10z m805 -40 c3
-5 1 -10 -4 -10 -6 0 -11 5 -11 10 0 6 2 10 4 10 3 0 8 -4 11 -10z m-25 -41
c0 -11 -4 -17 -10 -14 -5 3 -10 13 -10 21 0 8 5 14 10 14 6 0 10 -9 10 -21z
m-20 -39 c0 -11 -4 -20 -10 -20 -5 0 -10 9 -10 20 0 11 5 20 10 20 6 0 10 -9
10 -20z m-20 -60 c0 -16 -4 -30 -10 -30 -5 0 -10 14 -10 30 0 17 5 30 10 30 6
0 10 -13 10 -30z m-30 -60 c0 -11 -4 -20 -10 -20 -5 0 -10 -16 -10 -35 0 -19
-4 -35 -10 -35 -5 0 -10 13 -10 29 0 17 5 33 10 36 6 3 10 15 10 26 0 10 5 19
10 19 6 0 10 -9 10 -20z m-40 -141 c0 -21 -4 -39 -10 -39 -5 0 -10 21 -10 46
0 27 4 43 10 39 6 -3 10 -24 10 -46z"/>
<path d="M2430 2555 c0 -4 6 -13 14 -21 16 -16 40 -19 31 -4 -8 12 -45 33 -45
25z"/>
<path d="M2540 2463 c0 -10 40 -36 46 -30 3 2 -7 12 -21 21 -14 9 -25 13 -25
9z"/>
<path d="M2680 2353 c0 -5 9 -18 20 -28 11 -10 20 -14 20 -8 0 5 -9 18 -20 28
-11 10 -20 14 -20 8z"/>
<path d="M1410 2060 c0 -147 -4 -230 -10 -230 -5 0 -10 -16 -10 -35 0 -19 -4
-35 -9 -35 -10 0 -41 -56 -41 -73 0 -5 -8 -17 -17 -26 -21 -19 -53 -77 -53
-95 0 -6 -9 -18 -20 -26 -13 -9 -20 -26 -20 -46 0 -22 -7 -34 -25 -44 -16 -8
-25 -22 -25 -37 0 -13 -4 -23 -10 -23 -5 0 -10 -9 -10 -20 0 -36 -41 -23 -84
25 -22 25 -46 45 -53 45 -18 0 -73 54 -73 72 0 7 -9 20 -20 28 -11 8 -20 22
-20 31 0 9 -11 25 -25 35 -14 10 -25 27 -25 38 0 10 -16 32 -35 49 -19 16 -35
36 -35 44 0 16 -55 73 -71 73 -16 0 -109 97 -109 114 0 8 -10 18 -22 22 -27 8
-48 28 -48 45 0 19 -58 69 -81 69 -25 0 -20 -23 6 -29 24 -4 45 -25 45 -45 0
-19 184 -206 202 -206 16 0 48 -35 48 -51 0 -7 16 -26 35 -45 19 -18 35 -39
35 -48 0 -8 11 -23 25 -34 14 -11 25 -26 25 -34 0 -8 9 -24 20 -36 11 -12 20
-26 20 -33 0 -6 12 -20 26 -31 14 -11 23 -26 20 -33 -5 -15 17 -39 27 -29 3 4
27 -14 52 -40 26 -25 54 -46 64 -46 9 0 22 -5 28 -11 14 -14 43 10 43 34 0 8
7 17 15 21 8 3 15 15 15 26 0 11 5 20 10 20 6 0 10 11 10 25 0 14 5 25 10 25
6 0 10 12 10 28 0 25 29 62 48 62 5 0 19 -11 32 -25 13 -14 32 -25 42 -25 11
0 18 -7 18 -20 0 -12 7 -20 16 -20 9 0 27 -11 40 -25 16 -18 33 -25 59 -25 40
0 45 23 7 28 -12 2 -22 7 -22 12 0 5 -10 12 -22 16 -13 4 -35 20 -50 36 -15
16 -36 30 -48 31 -14 1 -20 8 -20 24 0 17 -6 23 -21 23 -18 0 -19 3 -9 15 6 8
9 18 6 23 -3 5 6 18 19 28 14 10 25 29 25 41 0 13 5 23 10 23 6 0 15 10 20 23
5 12 9 16 9 10 1 -7 8 -13 16 -13 13 0 15 38 15 280 0 242 -2 280 -15 280 -13
0 -15 -32 -15 -230z"/>
<path d="M296 2047 c-3 -12 -10 -85 -16 -162 -6 -77 -13 -150 -16 -162 -3 -17
-1 -21 11 -17 11 5 15 21 15 59 0 30 5 57 10 60 6 3 11 25 11 48 1 23 4 33 6
22 3 -11 11 -23 19 -28 7 -4 11 -14 8 -22 -4 -8 1 -18 10 -21 11 -4 16 -19 16
-50 0 -24 5 -44 10 -44 6 0 10 -9 10 -19 0 -11 5 -23 10 -26 6 -3 10 -24 10
-46 0 -26 5 -42 15 -45 8 -4 15 -14 15 -24 0 -11 5 -22 10 -25 6 -3 10 -21 10
-39 0 -38 21 -85 50 -111 11 -10 20 -31 20 -46 0 -15 5 -31 10 -34 6 -3 10
-15 10 -26 0 -10 5 -19 10 -19 6 0 10 -6 10 -14 0 -7 7 -19 15 -26 8 -7 15
-25 15 -41 0 -15 5 -31 10 -34 6 -3 10 -15 10 -25 0 -11 9 -24 20 -30 25 -13
50 -2 26 12 -9 5 -16 22 -16 38 0 16 -4 32 -10 35 -5 3 -10 15 -10 26 0 10 -4
19 -10 19 -5 0 -10 13 -10 28 0 17 -10 38 -25 52 -14 13 -25 34 -25 47 0 13
-11 36 -24 50 -14 15 -23 30 -20 35 3 4 -2 11 -10 14 -11 4 -16 19 -16 49 0
24 -4 47 -10 50 -5 3 -10 15 -10 26 0 10 -4 19 -10 19 -5 0 -10 17 -10 39 0
22 -6 44 -15 51 -8 7 -15 21 -15 31 0 11 -4 19 -10 19 -5 0 -10 20 -10 45 0
25 -4 45 -10 45 -5 0 -10 9 -10 20 0 11 -7 23 -15 26 -10 4 -15 20 -15 50 0
24 -4 44 -10 44 -5 0 -10 20 -10 44 0 49 -26 74 -34 33z"/>
<path d="M2663 2013 c-7 -3 -13 -12 -13 -21 0 -15 2 -15 17 1 18 18 16 27 -4
20z"/>
<path d="M2630 1954 c0 -8 5 -12 10 -9 6 3 10 10 10 16 0 5 -4 9 -10 9 -5 0
-10 -7 -10 -16z"/>
<path d="M2598 1911 c-18 -18 -24 -41 -10 -41 4 0 15 14 24 30 19 33 12 38
-14 11z"/>
<path d="M2557 1845 c-11 -8 -17 -22 -15 -37 3 -22 5 -21 22 10 20 39 18 46
-7 27z"/>
<path d="M287 1673 c-13 -13 -7 -53 8 -53 8 0 15 8 15 18 0 22 -14 44 -23 35z"/>
<path d="M143 1362 c-62 -152 -119 -310 -127 -351 -20 -92 -21 -147 -2 -154
15 -6 30 18 21 33 -3 4 2 10 10 14 10 3 15 19 15 46 0 22 5 40 10 40 6 0 10
20 10 44 0 24 5 46 11 48 5 2 11 10 12 18 2 8 7 22 12 30 21 32 35 63 35 76 0
8 5 14 10 14 6 0 10 20 10 45 0 31 5 47 15 51 8 4 15 19 15 34 0 16 5 32 10
35 6 3 10 19 10 35 0 16 5 32 10 35 6 3 10 19 10 35 0 15 6 30 14 33 15 6 22
102 8 111 -5 3 -58 -120 -119 -272z"/>
<path d="M1288 1259 c-10 -10 -18 -31 -18 -47 0 -16 -8 -32 -20 -40 -12 -7
-20 -23 -20 -40 0 -19 -11 -36 -35 -57 -19 -17 -35 -37 -35 -45 0 -23 -187
-210 -209 -210 -5 0 -14 -7 -21 -15 -7 -8 -26 -15 -42 -15 -37 0 -33 -24 5
-28 18 -2 29 2 33 12 3 9 15 16 26 16 23 0 238 209 238 232 0 7 16 26 35 43
24 21 35 38 35 57 0 16 5 28 10 28 6 0 10 7 10 15 0 8 5 15 10 15 6 0 10 9 10
19 0 10 7 22 16 25 17 6 16 48 -1 52 -5 1 -18 -6 -27 -17z"/>
<path d="M697 1083 c-11 -23 -6 -81 8 -87 8 -3 15 -15 15 -27 0 -31 25 -17 26
14 1 15 -5 32 -12 38 -8 6 -14 24 -14 40 0 27 -13 39 -23 22z"/>
<path d="M346 1042 c-8 -13 11 -35 23 -28 16 10 14 36 -3 36 -8 0 -17 -4 -20
-8z"/>
<path d="M373 994 c-3 -8 3 -25 14 -37 11 -12 23 -30 26 -39 4 -10 11 -18 17
-18 5 0 10 -10 10 -23 0 -12 9 -28 20 -35 11 -7 20 -20 20 -29 0 -20 54 -73
75 -73 8 0 15 -8 15 -19 0 -10 11 -27 25 -37 14 -10 25 -24 25 -30 0 -18 31
-74 41 -74 5 0 9 -7 9 -15 0 -8 5 -15 10 -15 6 0 10 -9 10 -19 0 -10 7 -22 16
-25 8 -3 12 -11 9 -16 -4 -6 10 -27 29 -46 20 -20 36 -42 36 -50 0 -8 7 -17
15 -20 8 -4 15 -15 15 -26 0 -11 20 -39 45 -62 25 -24 45 -51 45 -60 0 -31 48
-18 90 25 22 23 40 47 40 54 0 6 9 20 20 30 11 10 20 26 20 35 0 10 7 20 15
24 8 3 15 15 15 26 0 11 5 20 10 20 6 0 10 14 10 31 0 21 8 37 25 51 14 11 25
28 25 39 0 10 5 19 10 19 6 0 10 7 10 15 0 8 -6 15 -13 15 -17 0 -67 -55 -67
-74 0 -8 -5 -18 -10 -21 -5 -3 -10 -14 -10 -25 0 -10 -7 -20 -15 -24 -9 -3
-15 -18 -15 -36 0 -16 -4 -30 -10 -30 -5 0 -10 -10 -10 -21 0 -20 -45 -69 -62
-69 -5 0 -8 -5 -8 -11 0 -16 -26 -39 -44 -39 -9 0 -16 8 -16 18 0 9 -16 31
-35 47 -19 17 -35 40 -35 51 0 12 -7 24 -15 28 -8 3 -15 13 -15 21 0 21 -21
42 -46 47 -11 2 -19 12 -19 22 0 11 -6 21 -13 24 -6 2 -12 11 -12 21 0 9 -9
23 -20 31 -11 8 -20 22 -20 32 0 9 -8 22 -17 28 -17 9 -17 11 -1 20 15 9 13
14 -18 46 -19 20 -34 42 -34 48 0 6 -10 20 -21 30 -17 14 -23 15 -29 5 -6 -9
-12 -8 -26 6 -10 10 -19 24 -20 32 -1 8 -12 22 -23 32 -12 10 -21 23 -21 28 0
14 -30 72 -41 78 -5 4 -9 16 -9 28 0 27 -38 35 -47 11z"/>
<path d="M790 975 c0 -14 5 -25 10 -25 6 0 10 11 10 25 0 14 -4 25 -10 25 -5
0 -10 -11 -10 -25z"/>
<path d="M3250 890 c0 -5 5 -10 11 -10 5 0 7 5 4 10 -3 6 -8 10 -11 10 -2 0
-4 -4 -4 -10z"/>
<path d="M3280 865 c0 -13 170 -175 184 -175 9 0 16 -7 16 -15 0 -8 20 -35 44
-59 34 -33 46 -52 49 -82 l4 -39 1 38 c3 55 -50 128 -171 234 -104 91 -127
109 -127 98z"/>
<path d="M60 759 c0 -6 9 -28 19 -48 11 -20 39 -80 63 -133 42 -94 49 -103
258 -328 118 -128 217 -236 218 -241 2 -5 17 -9 33 -9 26 0 12 17 -156 185
-102 102 -185 191 -185 199 0 8 -16 28 -35 45 -19 17 -35 35 -35 41 0 6 -4 8
-10 5 -5 -3 -10 3 -10 14 0 11 -11 28 -25 39 -14 11 -25 29 -25 41 0 12 -4 21
-10 21 -5 0 -10 6 -10 13 0 18 -28 75 -41 82 -5 4 -9 15 -9 26 0 10 -4 19 -10
19 -5 0 -10 9 -10 20 0 11 -4 20 -10 20 -5 0 -10 -5 -10 -11z"/>
<path d="M2104 526 c-3 -8 -16 -13 -30 -11 -27 3 -64 -24 -64 -47 0 -8 -11
-25 -25 -38 -14 -13 -23 -30 -21 -36 3 -7 -2 -15 -10 -18 -9 -3 -14 -20 -14
-47 0 -44 19 -68 53 -69 11 0 17 -8 17 -25 0 -18 5 -25 19 -25 11 0 23 -5 26
-10 8 -13 75 -13 75 0 0 6 9 10 19 10 11 0 28 11 39 25 11 14 26 25 35 25 27
0 67 51 67 86 0 19 -4 34 -8 34 -14 0 -82 72 -82 86 0 19 -56 74 -76 74 -8 0
-17 -6 -20 -14z m56 -57 c22 -23 37 -45 34 -50 -3 -5 7 -20 22 -34 29 -27 29
-33 -3 -38 -12 -1 -28 -9 -37 -16 -22 -18 -50 -10 -54 17 -2 12 -8 22 -13 22
-5 0 -9 14 -9 30 0 17 5 30 10 30 6 0 10 7 10 15 0 8 -7 15 -15 15 -8 0 -15
-6 -15 -14 0 -8 -6 -21 -14 -29 -9 -9 -14 -32 -13 -63 2 -47 1 -49 -25 -52
-16 -2 -28 1 -28 7 0 6 -9 11 -20 11 -11 0 -20 7 -20 15 0 8 5 15 10 15 6 0
10 11 10 25 0 14 5 25 10 25 6 0 10 6 10 14 0 18 57 76 75 76 8 0 17 5 20 10
9 15 12 14 55 -31z"/>
<path d="M1060 50 c0 -5 7 -7 15 -4 8 4 15 8 15 10 0 2 -7 4 -15 4 -8 0 -15
-4 -15 -10z"/>
<path d="M2780 30 c0 -5 5 -10 11 -10 5 0 7 5 4 10 -3 6 -8 10 -11 10 -2 0 -4
-4 -4 -10z"/>
<path d="M978 3 c7 -3 16 -2 19 1 4 3 -2 6 -13 5 -11 0 -14 -3 -6 -6z"/>
<path d="M2878 3 c12 -2 30 -2 40 0 9 3 -1 5 -23 4 -22 0 -30 -2 -17 -4z"/>
</g>
</svg>
